<?xml version="1.0" encoding="UTF-8"?>
<svg width="340px" height="100px" viewBox="0 0 340 100" version="1.1" xmlns="http://www.w3.org/2000/svg" xmlns:xlink="http://www.w3.org/1999/xlink">
    <title>Group 2</title>
    <g id="Page-1" stroke="none" stroke-width="1" fill="none" fill-rule="evenodd">
        <g id="Group-2">
            <rect id="Rectangle" x="0" y="0.71942446" width="340" height="99.2805755"></rect>
            <g id="UMIYA-DIGITAL-STUDIO" transform="translate(122.963867, 27.859768)" fill="#091B22" fill-rule="nonzero">
                <path d="M38.9501953,2.296875 C38.4970703,2.34375 37.8447266,2.44921875 36.9931641,2.61328125 C36.1416016,2.77734375 35.4267578,3.0625 34.8486328,3.46875 C34.2548828,3.859375 33.8369141,4.5625 33.5947266,5.578125 C33.3525391,6.59375 33.2314453,8.1171875 33.2314453,10.1484375 L33.2314453,22.5234375 C33.2314453,26.1640625 31.9970703,29.09375 29.5283203,31.3125 C27.0595703,33.53125 23.7939453,34.640625 19.7314453,34.640625 C14.9970703,34.640625 11.3330078,33.5703125 8.73925781,31.4296875 C6.14550781,29.2890625 4.84863281,26.3046875 4.84863281,22.4765625 L4.84863281,5.4609375 C4.84863281,4.9140625 4.74316406,4.4453125 4.53222656,4.0546875 C4.32128906,3.6640625 3.91894531,3.3125 3.32519531,3 C2.91894531,2.796875 2.41894531,2.6328125 1.82519531,2.5078125 C1.23144531,2.3828125 0.747070312,2.296875 0.372070312,2.25 L0.372070312,0.46875 L17.8095703,0.46875 L17.8095703,2.25 C17.3095703,2.28125 16.8017578,2.33984375 16.2861328,2.42578125 C15.7705078,2.51171875 15.2470703,2.640625 14.7158203,2.8125 C14.1220703,3 13.7236328,3.3125 13.5205078,3.75 C13.3173828,4.1875 13.2158203,4.6796875 13.2158203,5.2265625 L13.2158203,22.0078125 C13.2158203,25.3046875 13.9423828,27.703125 15.3955078,29.203125 C16.8486328,30.703125 18.9580078,31.453125 21.7236328,31.453125 C24.4423828,31.453125 26.5751953,30.625 28.1220703,28.96875 C29.6689453,27.3125 30.4423828,24.875 30.4423828,21.65625 L30.4423828,10.3828125 C30.4423828,8.3828125 30.3056641,6.88671875 30.0322266,5.89453125 C29.7587891,4.90234375 29.3408203,4.1875 28.7783203,3.75 C28.3720703,3.40625 27.6650391,3.09375 26.6572266,2.8125 C25.6494141,2.53125 24.9423828,2.359375 24.5361328,2.296875 L24.5361328,0.46875 L38.9501953,0.46875 L38.9501953,2.296875 Z" id="Path"></path>
                <path d="M94.5315048,33.7265625 L76.5080673,33.7265625 L76.5080673,31.8984375 C77.0393173,31.8515625 77.6916611,31.7734375 78.4650986,31.6640625 C79.2385361,31.5546875 79.7658798,31.4375 80.0471298,31.3125 C80.6252548,31.078125 81.0393173,30.7578125 81.2893173,30.3515625 C81.5393173,29.9453125 81.6643173,29.4296875 81.6643173,28.8046875 L81.6643173,3.9609375 L70.2268173,33.1875 L67.2736923,33.1875 C67.1330673,32.671875 66.7854111,31.6484375 66.2307236,30.1171875 C65.6760361,28.5859375 65.2268173,27.359375 64.8830673,26.4375 L56.4690048,3.5859375 L56.4690048,23.8125 C56.4690048,25.75 56.5979111,27.2226562 56.8557236,28.2304688 C57.1135361,29.2382812 57.5315048,29.9765625 58.1096298,30.4453125 C58.5002548,30.7734375 59.1994736,31.0859375 60.2072861,31.3828125 C61.2150986,31.6796875 61.9221298,31.8515625 62.3283798,31.8984375 L62.3283798,33.7265625 L48.0315048,33.7265625 L48.0315048,31.8984375 C48.4221298,31.8515625 49.0588486,31.7460938 49.9416611,31.5820312 C50.8244736,31.4179688 51.5471298,31.1328125 52.1096298,30.7265625 C52.7346298,30.2890625 53.1565048,29.5507812 53.3752548,28.5117188 C53.5940048,27.4726562 53.7033798,25.9921875 53.7033798,24.0703125 L53.7033798,7.59375 C53.7033798,6.59375 53.5783798,5.76171875 53.3283798,5.09765625 C53.0783798,4.43359375 52.7033798,3.90625 52.2033798,3.515625 C51.5783798,3.03125 50.9377548,2.71875 50.2815048,2.578125 C49.6252548,2.4375 48.9611923,2.34375 48.2893173,2.296875 L48.2893173,0.46875 L63.5940048,0.46875 L71.7971298,22.4296875 L78.7111923,4.59375 C78.9455673,3.9375 79.1721298,3.15625 79.3908798,2.25 C79.6096298,1.34375 79.7268173,0.75 79.7424423,0.46875 L94.4846298,0.46875 L94.4846298,2.296875 C93.9846298,2.328125 93.4611923,2.390625 92.9143173,2.484375 C92.3674423,2.578125 91.8440048,2.703125 91.3440048,2.859375 C90.7346298,3.0625 90.3322861,3.3828125 90.1369736,3.8203125 C89.9416611,4.2578125 89.8440048,4.7421875 89.8440048,5.2734375 L89.8440048,28.828125 C89.8440048,29.390625 89.9416611,29.8632812 90.1369736,30.2460938 C90.3322861,30.6289062 90.7346298,30.9609375 91.3440048,31.2421875 C91.6565048,31.3828125 92.1682236,31.515625 92.8791611,31.640625 C93.5900986,31.765625 94.1408798,31.8515625 94.5315048,31.8984375 L94.5315048,33.7265625 Z" id="Path"></path>
                <path d="M124.425314,33.7265625 L105.980002,33.7265625 L105.980002,31.8984375 C106.401877,31.8671875 107.022971,31.8203125 107.843283,31.7578125 C108.663596,31.6953125 109.230002,31.6015625 109.542502,31.4765625 C110.120627,31.2421875 110.515158,30.9335938 110.726096,30.5507812 C110.937033,30.1679688 111.042502,29.6796875 111.042502,29.0859375 L111.042502,5.5078125 C111.042502,4.9765625 110.940939,4.5078125 110.737814,4.1015625 C110.534689,3.6953125 110.136252,3.3671875 109.542502,3.1171875 C109.167502,2.9609375 108.612814,2.80078125 107.878439,2.63671875 C107.144064,2.47265625 106.511252,2.359375 105.980002,2.296875 L105.980002,0.46875 L124.425314,0.46875 L124.425314,2.296875 C123.956564,2.34375 123.370627,2.41015625 122.667502,2.49609375 C121.964377,2.58203125 121.370627,2.703125 120.886252,2.859375 C120.276877,3.0625 119.870627,3.37890625 119.667502,3.80859375 C119.464377,4.23828125 119.362814,4.7265625 119.362814,5.2734375 L119.362814,28.828125 C119.362814,29.390625 119.468283,29.8710937 119.679221,30.2695312 C119.890158,30.6679688 120.292502,30.9921875 120.886252,31.2421875 C121.214377,31.3828125 121.757346,31.5195312 122.515158,31.6523438 C123.272971,31.7851562 123.909689,31.8671875 124.425314,31.8984375 L124.425314,33.7265625 Z" id="Path"></path>
                <path d="M170.795686,2.296875 C170.233186,2.359375 169.717561,2.4609375 169.248811,2.6015625 C168.780061,2.7421875 168.334749,2.9375 167.912874,3.1875 C167.240999,3.5625 166.643343,4.04296875 166.119905,4.62890625 C165.596468,5.21484375 165.084749,5.8671875 164.584749,6.5859375 C163.569124,8.0703125 162.502718,9.68359375 161.38553,11.4257812 C160.268343,13.1679688 159.053499,15.0859375 157.740999,17.1796875 C156.881624,18.5078125 156.35428,19.5273438 156.158968,20.2382812 C155.963655,20.9492188 155.865999,22.1796875 155.865999,23.9296875 L155.865999,28.640625 C155.865999,29.203125 155.971468,29.6953125 156.182405,30.1171875 C156.393343,30.5390625 156.795686,30.8828125 157.389436,31.1484375 C157.655061,31.2578125 158.217561,31.4023438 159.076936,31.5820312 C159.936311,31.7617188 160.569124,31.8671875 160.975374,31.8984375 L160.975374,33.7265625 L142.436311,33.7265625 L142.436311,31.8984375 C142.873811,31.8671875 143.502718,31.8046875 144.32303,31.7109375 C145.143343,31.6171875 145.717561,31.5078125 146.045686,31.3828125 C146.623811,31.1328125 147.018343,30.8007812 147.22928,30.3867188 C147.440218,29.9726562 147.545686,29.46875 147.545686,28.875 L147.545686,23.015625 C147.545686,22.5 147.537874,22.046875 147.522249,21.65625 C147.506624,21.265625 147.451936,20.9375 147.358186,20.671875 C147.248811,20.375 147.061311,19.9960938 146.795686,19.5351562 C146.530061,19.0742188 146.186311,18.4765625 145.764436,17.7421875 C144.561311,15.6328125 143.397249,13.6328125 142.272249,11.7421875 C141.147249,9.8515625 140.076936,8.078125 139.061311,6.421875 C138.530061,5.5625 137.994905,4.87109375 137.455843,4.34765625 C136.91678,3.82421875 136.365999,3.3984375 135.803499,3.0703125 C135.381624,2.8359375 134.869905,2.65625 134.268343,2.53125 C133.66678,2.40625 133.123811,2.328125 132.639436,2.296875 L132.639436,0.46875 L151.694124,0.46875 L151.694124,2.296875 C149.944124,2.34375 148.764436,2.46484375 148.155061,2.66015625 C147.545686,2.85546875 147.240999,3.125 147.240999,3.46875 C147.240999,3.640625 147.35428,3.984375 147.580843,4.5 C147.807405,5.015625 148.209749,5.8125 148.787874,6.890625 C149.319124,7.90625 150.096468,9.3046875 151.119905,11.0859375 C152.143343,12.8671875 153.373811,14.953125 154.811311,17.34375 C157.780061,12.640625 159.819124,9.35546875 160.928499,7.48828125 C162.037874,5.62109375 162.592561,4.4765625 162.592561,4.0546875 C162.592561,3.5234375 162.268343,3.1171875 161.619905,2.8359375 C160.971468,2.5546875 159.920686,2.375 158.467561,2.296875 L158.467561,0.46875 L170.795686,0.46875 L170.795686,2.296875 Z" id="Path"></path>
                <path d="M215.080121,33.7265625 L196.962933,33.7265625 L196.962933,31.8984375 C197.806683,31.8359375 198.798871,31.6835938 199.939496,31.4414062 C201.080121,31.1992188 201.650433,30.8984375 201.650433,30.5390625 C201.650433,30.4140625 201.638715,30.2734375 201.615277,30.1171875 C201.59184,29.9609375 201.525433,29.75 201.416058,29.484375 L198.580121,22.59375 L187.095746,22.59375 C186.830121,23.234375 186.537152,23.984375 186.21684,24.84375 C185.896527,25.703125 185.619183,26.46875 185.384808,27.140625 C185.087933,28.015625 184.912152,28.6484375 184.857465,29.0390625 C184.802777,29.4296875 184.775433,29.703125 184.775433,29.859375 C184.775433,30.359375 185.15434,30.7851562 185.912152,31.1367188 C186.669965,31.4882812 187.931683,31.7421875 189.697308,31.8984375 L189.697308,33.7265625 L176.056683,33.7265625 L176.056683,31.8984375 C176.572308,31.8671875 177.15434,31.7851562 177.802777,31.6523438 C178.451215,31.5195313 178.962933,31.3359375 179.337933,31.1015625 C179.978558,30.7265625 180.521527,30.265625 180.96684,29.71875 C181.412152,29.171875 181.783246,28.5234375 182.080121,27.7734375 C183.892621,23.3828125 185.709027,18.984375 187.52934,14.578125 C189.349652,10.171875 191.361371,5.3125 193.564496,0 L198.251996,0 C201.314496,7.53125 203.712933,13.484375 205.447308,17.859375 C207.181683,22.234375 208.658246,25.859375 209.876996,28.734375 C210.080121,29.203125 210.337933,29.6289062 210.650433,30.0117188 C210.962933,30.3945312 211.408246,30.7578125 211.986371,31.1015625 C212.423871,31.3515625 212.931683,31.5390625 213.509808,31.6640625 C214.087933,31.7890625 214.611371,31.8671875 215.080121,31.8984375 L215.080121,33.7265625 Z M197.619183,20.2734375 L192.791058,8.2265625 L188.033246,20.2734375 L197.619183,20.2734375 Z" id="Shape"></path>
                <path d="M13.9760742,56.5385742 C13.9760742,57.7758789 13.7436523,58.8491211 13.2788086,59.7583008 C12.8139648,60.6674805 12.2089844,61.4125977 11.4638672,61.9936523 C10.7119141,62.574707 9.86767578,63.0087891 8.93115234,63.2958984 C7.99462891,63.5830078 7.02734375,63.7265625 6.02929688,63.7265625 L0,63.7265625 L0,62.9985352 C0.198242188,62.9985352 0.456298828,62.9797363 0.774169922,62.9421387 C1.09204102,62.904541 1.30224609,62.8618164 1.40478516,62.8139648 C1.60986328,62.7250977 1.75854492,62.5935059 1.85083008,62.4191895 C1.94311523,62.244873 1.98925781,62.034668 1.98925781,61.7885742 L1.98925781,51.2885742 C1.98925781,51.0561523 1.94995117,50.8476562 1.87133789,50.6630859 C1.79272461,50.4785156 1.63720703,50.331543 1.40478516,50.222168 C1.19287109,50.1196289 0.963867188,50.0444336 0.717773438,49.996582 C0.471679688,49.9487305 0.259765625,49.9179688 0.08203125,49.9042969 L0.08203125,49.1762695 L6.43945312,49.1762695 C7.31445312,49.1762695 8.17578125,49.3112793 9.0234375,49.5812988 C9.87109375,49.8513184 10.609375,50.215332 11.2382812,50.6733398 C12.0927734,51.2817383 12.7626953,52.078125 13.2480469,53.0625 C13.7333984,54.046875 13.9760742,55.2055664 13.9760742,56.5385742 Z M11.4638672,56.5283203 C11.4638672,55.5507812 11.3339844,54.6672363 11.0742188,53.8776855 C10.8144531,53.0881348 10.4350586,52.3994141 9.93603516,51.8115234 C9.46435547,51.2509766 8.88500977,50.8100586 8.19799805,50.4887695 C7.51098633,50.1674805 6.74707031,50.0068359 5.90625,50.0068359 C5.62597656,50.0068359 5.30981445,50.0119629 4.95776367,50.0222168 C4.60571289,50.0324707 4.34423828,50.0410156 4.17333984,50.0478516 L4.17333984,61.2348633 C4.17333984,61.8569336 4.35449219,62.2875977 4.71679688,62.5268555 C5.07910156,62.7661133 5.63623047,62.8857422 6.38818359,62.8857422 C7.25634766,62.8857422 8.01513672,62.7319336 8.66455078,62.4243164 C9.31396484,62.1166992 9.84033203,61.6894531 10.2436523,61.1425781 C10.6674805,60.5683594 10.9768066,59.9035645 11.1716309,59.1481934 C11.3664551,58.3928223 11.4638672,57.5195312 11.4638672,56.5283203 Z" id="Shape"></path>
                <path d="M25.5365167,63.7265625 L18.9842706,63.7265625 L18.9842706,62.9985352 C19.1688409,62.9848633 19.4354425,62.9643555 19.7840753,62.9370117 C20.1327081,62.909668 20.3788018,62.8686523 20.5223565,62.8139648 C20.7479425,62.7250977 20.912005,62.6037598 21.014544,62.4499512 C21.1170831,62.2961426 21.1683526,62.0825195 21.1683526,61.809082 L21.1683526,51.2680664 C21.1683526,51.0288086 21.130755,50.8288574 21.0555597,50.6682129 C20.9803643,50.5075684 20.80263,50.3725586 20.5223565,50.2631836 C20.3172784,50.1811523 20.0592218,50.104248 19.7481866,50.0324707 C19.4371515,49.9606934 19.1825128,49.9179688 18.9842706,49.9042969 L18.9842706,49.1762695 L25.5365167,49.1762695 L25.5365167,49.9042969 C25.3246026,49.9111328 25.0716729,49.9367676 24.7777276,49.9812012 C24.4837823,50.0256348 24.2274347,50.0820312 24.0086847,50.1503906 C23.748919,50.2324219 23.5746026,50.3657227 23.4857354,50.550293 C23.3968683,50.7348633 23.3524347,50.9399414 23.3524347,51.1655273 L23.3524347,61.6962891 C23.3524347,61.921875 23.4019952,62.1218262 23.5011163,62.2961426 C23.6002374,62.470459 23.7694268,62.6088867 24.0086847,62.7114258 C24.1522393,62.7661133 24.3863702,62.8259277 24.7110772,62.8908691 C25.0357843,62.9558105 25.3109308,62.9916992 25.5365167,62.9985352 L25.5365167,63.7265625 Z" id="Path"></path>
                <path d="M44.8489123,57.9125977 C44.6848498,57.9331055 44.4643908,57.9655762 44.1875353,58.0100098 C43.9106799,58.0544434 43.6868029,58.1176758 43.5159045,58.199707 C43.3108263,58.3022461 43.1655627,58.4475098 43.0801135,58.635498 C42.9946642,58.8234863 42.9519396,59.0439453 42.9519396,59.296875 L42.9519396,60.4248047 C42.9519396,61.2451172 42.9570666,61.7988281 42.9673205,62.0859375 C42.9775744,62.3730469 42.9895373,62.6088867 43.0032092,62.793457 C42.0940295,63.2036133 41.1882678,63.5180664 40.285924,63.7368164 C39.3835803,63.9555664 38.4983263,64.0649414 37.6301623,64.0649414 C36.7004748,64.0649414 35.804967,63.890625 34.9436388,63.5419922 C34.0823107,63.1933594 33.3303576,62.6977539 32.6877795,62.0551758 C32.0383654,61.4057617 31.5222521,60.6162109 31.1394396,59.6865234 C30.7566271,58.7568359 30.5652209,57.7177734 30.5652209,56.5693359 C30.5652209,55.4619141 30.7480822,54.4348145 31.1138049,53.4880371 C31.4795275,52.5412598 31.9973498,51.7192383 32.6672717,51.0219727 C33.3166857,50.3383789 34.0908556,49.8068848 34.9897814,49.4274902 C35.8887072,49.0480957 36.8508654,48.8583984 37.876256,48.8583984 C38.6965685,48.8583984 39.410924,48.9575195 40.0193224,49.1557617 C40.6277209,49.3540039 41.164342,49.5932617 41.6291857,49.8735352 L42.0495959,49.1762695 L42.8699084,49.1762695 L42.9621935,54.262207 L42.1213732,54.262207 C41.9778185,53.7016602 41.8000842,53.1496582 41.5881701,52.6062012 C41.376256,52.0627441 41.1028185,51.5756836 40.7678576,51.1450195 C40.4328967,50.7143555 40.0244494,50.3708496 39.5425158,50.114502 C39.0605822,49.8581543 38.4846545,49.7299805 37.8147326,49.7299805 C37.0832873,49.7299805 36.4304553,49.8786621 35.8562365,50.1760254 C35.2820178,50.4733887 34.7829943,50.9160156 34.3591662,51.5039062 C33.942174,52.0712891 33.6208849,52.7788086 33.395299,53.6264648 C33.1697131,54.4741211 33.0569201,55.4208984 33.0569201,56.4667969 C33.0569201,57.3896484 33.1680041,58.2595215 33.390172,59.076416 C33.61234,59.8933105 33.9353381,60.5991211 34.3591662,61.1938477 C34.7829943,61.8022461 35.3127795,62.2807617 35.9485217,62.6293945 C36.5842638,62.9780273 37.3054553,63.1523438 38.1120959,63.1523438 C38.7136584,63.1523438 39.2622424,63.0600586 39.7578478,62.8754883 C40.2534533,62.690918 40.6037951,62.4960938 40.8088732,62.2910156 C40.8635607,61.9355469 40.8926135,61.5766602 40.8960314,61.2143555 C40.8994494,60.8520508 40.9011584,60.5444336 40.9011584,60.2915039 L40.9011584,59.4916992 C40.9011584,59.2045898 40.8618517,58.9499512 40.7832385,58.7277832 C40.7046252,58.5056152 40.5422717,58.3432617 40.2961779,58.2407227 C40.070592,58.1381836 39.7646838,58.0612793 39.3784533,58.0100098 C38.9922228,57.9587402 38.6897326,57.9262695 38.4709826,57.9125977 L38.4709826,57.1640625 L44.8489123,57.1640625 L44.8489123,57.9125977 Z" id="Path"></path>
                <path d="M55.7633587,63.7265625 L49.2111126,63.7265625 L49.2111126,62.9985352 C49.3956829,62.9848633 49.6622844,62.9643555 50.0109173,62.9370117 C50.3595501,62.909668 50.6056438,62.8686523 50.7491985,62.8139648 C50.9747844,62.7250977 51.1388469,62.6037598 51.241386,62.4499512 C51.3439251,62.2961426 51.3951946,62.0825195 51.3951946,61.809082 L51.3951946,51.2680664 C51.3951946,51.0288086 51.3575969,50.8288574 51.2824016,50.6682129 C51.2072063,50.5075684 51.0294719,50.3725586 50.7491985,50.2631836 C50.5441204,50.1811523 50.2860637,50.104248 49.9750286,50.0324707 C49.6639934,49.9606934 49.4093548,49.9179688 49.2111126,49.9042969 L49.2111126,49.1762695 L55.7633587,49.1762695 L55.7633587,49.9042969 C55.5514446,49.9111328 55.2985149,49.9367676 55.0045696,49.9812012 C54.7106243,50.0256348 54.4542766,50.0820312 54.2355266,50.1503906 C53.975761,50.2324219 53.8014446,50.3657227 53.7125774,50.550293 C53.6237102,50.7348633 53.5792766,50.9399414 53.5792766,51.1655273 L53.5792766,61.6962891 C53.5792766,61.921875 53.6288372,62.1218262 53.7279583,62.2961426 C53.8270794,62.470459 53.9962688,62.6088867 54.2355266,62.7114258 C54.3790813,62.7661133 54.6132122,62.8259277 54.9379192,62.8908691 C55.2626262,62.9558105 55.5377727,62.9916992 55.7633587,62.9985352 L55.7633587,63.7265625 Z" id="Path"></path>
                <path d="M72.8198949,53.1240234 L72.1123753,53.1240234 C72.0508519,52.8779297 71.9397679,52.5856934 71.7791234,52.2473145 C71.6184789,51.9089355 71.4390355,51.5893555 71.2407933,51.2885742 C71.0357152,50.9741211 70.8118382,50.6989746 70.5691625,50.4631348 C70.3264867,50.2272949 70.0923558,50.0922852 69.8667699,50.0581055 C69.6548558,50.0307617 69.3882542,50.0102539 69.0669652,49.996582 C68.7456761,49.9829102 68.4483128,49.9760742 68.1748753,49.9760742 L67.5801488,49.9760742 L67.5801488,61.6142578 C67.5801488,61.8398438 67.6280003,62.0466309 67.7237035,62.2346191 C67.8194066,62.4226074 67.9868871,62.5678711 68.2261449,62.6704102 C68.3491917,62.7182617 68.6072484,62.7832031 69.0003148,62.8652344 C69.3933812,62.9472656 69.6992894,62.9916992 69.9180394,62.9985352 L69.9180394,63.7265625 L63.0479222,63.7265625 L63.0479222,62.9985352 C63.2393285,62.9848633 63.5315648,62.9575195 63.9246312,62.9165039 C64.3176976,62.8754883 64.5894261,62.8242188 64.7398167,62.7626953 C64.9654027,62.6738281 65.1311742,62.5456543 65.2371312,62.3781738 C65.3430882,62.2106934 65.3960667,61.9868164 65.3960667,61.706543 L65.3960667,49.9760742 L64.8013402,49.9760742 C64.5894261,49.9760742 64.3262425,49.9812012 64.0117894,49.9914551 C63.6973363,50.001709 63.396555,50.0239258 63.1094457,50.0581055 C62.8838597,50.0854492 62.6497289,50.220459 62.4070531,50.4631348 C62.1643773,50.7058105 61.9405003,50.980957 61.7354222,51.2885742 C61.5303441,51.5961914 61.3491917,51.9226074 61.1919652,52.2678223 C61.0347386,52.6130371 60.9253636,52.8984375 60.8638402,53.1240234 L60.1460667,53.1240234 L60.1460667,49.1762695 L72.8198949,49.1762695 L72.8198949,53.1240234 Z" id="Path"></path>
                <path d="M90.9633452,63.7265625 L84.9032866,63.7265625 L84.9032866,62.9985352 C85.4364897,62.9643555 85.8791166,62.8959961 86.2311674,62.793457 C86.5832182,62.690918 86.7592436,62.5644531 86.7592436,62.4140625 C86.7592436,62.3525391 86.7524077,62.2773438 86.7387358,62.1884766 C86.7250639,62.0996094 86.7045561,62.0209961 86.6772123,61.9526367 L85.4672514,58.6918945 L80.37106,58.6918945 C80.1796537,59.1704102 80.0241362,59.5874023 79.9045073,59.9428711 C79.7848784,60.2983398 79.6772123,60.6264648 79.5815092,60.9272461 C79.492642,61.2211914 79.4311186,61.4604492 79.3969389,61.6450195 C79.3627592,61.8295898 79.3456694,61.9799805 79.3456694,62.0961914 C79.3456694,62.3696289 79.5610014,62.581543 79.9916655,62.7319336 C80.4223295,62.8823242 80.9076811,62.9711914 81.4477202,62.9985352 L81.4477202,63.7265625 L75.9721342,63.7265625 L75.9721342,62.9985352 C76.1498686,62.9848633 76.3720366,62.9455566 76.6386381,62.8806152 C76.9052397,62.8156738 77.1239897,62.7285156 77.2948881,62.6191406 C77.5683256,62.4345703 77.7802397,62.2414551 77.9306303,62.0397949 C78.0810209,61.8381348 78.2279936,61.5595703 78.3715483,61.2041016 C79.1029936,59.3789062 79.9096342,57.328125 80.7914702,55.0517578 C81.6733061,52.7753906 82.4594389,50.7485352 83.1498686,48.9711914 L83.9701811,48.9711914 L88.8202787,61.5219727 C88.9228178,61.7885742 89.0390287,62.0039062 89.1689116,62.1679688 C89.2987944,62.3320312 89.4799467,62.4926758 89.7123686,62.6499023 C89.8695952,62.7456055 90.0746733,62.8259277 90.327603,62.8908691 C90.5805327,62.9558105 90.7924467,62.9916992 90.9633452,62.9985352 L90.9633452,63.7265625 Z M85.0981108,57.7792969 L82.8935209,52.1396484 L80.7299467,57.7792969 L85.0981108,57.7792969 Z" id="Shape"></path>
                <path d="M106.574081,59.3994141 L106.266463,63.7265625 L94.8948814,63.7265625 L94.8948814,62.9985352 C95.0589439,62.9848633 95.2964927,62.9609375 95.6075279,62.9267578 C95.918563,62.8925781 96.135604,62.8481445 96.2586509,62.793457 C96.463729,62.7045898 96.6124107,62.574707 96.7046958,62.4038086 C96.796981,62.2329102 96.8431236,62.0141602 96.8431236,61.7475586 L96.8431236,51.3295898 C96.8431236,51.097168 96.8038169,50.8920898 96.7252036,50.7143555 C96.6465904,50.5366211 96.4910728,50.3930664 96.2586509,50.2836914 C96.1014243,50.2016602 95.8809654,50.1213379 95.597274,50.0427246 C95.3135825,49.9641113 95.0794517,49.9179688 94.8948814,49.9042969 L94.8948814,49.1762695 L101.036971,49.1762695 L101.036971,49.9042969 C100.845565,49.9111328 100.597762,49.9453125 100.293563,50.0068359 C99.9893638,50.0683594 99.7689048,50.1230469 99.6321861,50.1708984 C99.3997642,50.2529297 99.2408286,50.3930664 99.1553794,50.5913086 C99.0699302,50.7895508 99.0272056,51.0014648 99.0272056,51.2270508 L99.0272056,60.9990234 C99.0272056,61.4501953 99.0494224,61.8005371 99.093856,62.0500488 C99.1382896,62.2995605 99.2425376,62.4926758 99.4066001,62.6293945 C99.5638267,62.7524414 99.7979575,62.8327637 100.108993,62.8703613 C100.420028,62.907959 100.855819,62.9267578 101.416366,62.9267578 C101.669295,62.9267578 101.932479,62.9199219 102.205917,62.90625 C102.479354,62.8925781 102.73912,62.8652344 102.985213,62.8242188 C103.224471,62.7832031 103.44493,62.7268066 103.64659,62.6550293 C103.848251,62.583252 103.996932,62.4926758 104.092635,62.3833008 C104.372909,62.0688477 104.699325,61.592041 105.071883,60.9528809 C105.444442,60.3137207 105.702499,59.7958984 105.846053,59.3994141 L106.574081,59.3994141 Z" id="Path"></path>
                <path d="M128.505512,57.0512695 C128.81313,57.3930664 129.040425,57.767334 129.187397,58.1740723 C129.33437,58.5808105 129.407856,59.0541992 129.407856,59.5942383 C129.407856,60.8793945 128.932758,61.9389648 127.982563,62.7729492 C127.032368,63.6069336 125.853169,64.0239258 124.444966,64.0239258 C123.795551,64.0239258 123.146137,63.9230957 122.496723,63.7214355 C121.847309,63.5197754 121.286762,63.2753906 120.815083,62.9882812 L120.374165,63.7368164 L119.553852,63.7368164 L119.410298,58.753418 L120.240864,58.753418 C120.411762,59.3686523 120.611714,59.9240723 120.840717,60.4196777 C121.069721,60.9152832 121.372212,61.378418 121.748188,61.809082 C122.103657,62.2124023 122.51894,62.5336914 122.994038,62.7729492 C123.469135,63.012207 124.021137,63.1318359 124.650044,63.1318359 C125.121723,63.1318359 125.533589,63.0703125 125.885639,62.9472656 C126.23769,62.8242188 126.523091,62.6499023 126.741841,62.4243164 C126.960591,62.1987305 127.122944,61.9338379 127.228901,61.6296387 C127.334858,61.3254395 127.387837,60.9750977 127.387837,60.5786133 C127.387837,59.9975586 127.223774,59.4558105 126.895649,58.9533691 C126.567524,58.4509277 126.078755,58.0698242 125.429341,57.8100586 C124.985005,57.6323242 124.475727,57.435791 123.901508,57.220459 C123.32729,57.005127 122.831684,56.8017578 122.414692,56.6103516 C121.59438,56.2412109 120.956928,55.7575684 120.502339,55.1594238 C120.047749,54.5612793 119.820454,53.7802734 119.820454,52.8164062 C119.820454,52.2626953 119.933247,51.746582 120.158833,51.2680664 C120.384419,50.7895508 120.705708,50.3623047 121.1227,49.9863281 C121.519184,49.6308594 121.987446,49.3522949 122.527485,49.1506348 C123.067524,48.9489746 123.631489,48.8481445 124.21938,48.8481445 C124.889301,48.8481445 125.489155,48.9506836 126.01894,49.1557617 C126.548725,49.3608398 127.032368,49.6000977 127.469868,49.8735352 L127.890278,49.1762695 L128.710591,49.1762695 L128.792622,54.0058594 L127.962055,54.0058594 C127.811665,53.4521484 127.642475,52.9223633 127.454487,52.4165039 C127.266499,51.9106445 127.022114,51.4526367 126.721333,51.0424805 C126.427387,50.6459961 126.068501,50.329834 125.644673,50.0939941 C125.220844,49.8581543 124.701313,49.7402344 124.086079,49.7402344 C123.436665,49.7402344 122.882954,49.9487305 122.424946,50.3657227 C121.966938,50.7827148 121.737934,51.2919922 121.737934,51.8935547 C121.737934,52.5224609 121.884907,53.0437012 122.178852,53.4572754 C122.472798,53.8708496 122.900044,54.2109375 123.460591,54.4775391 C123.959614,54.7167969 124.450092,54.923584 124.932026,55.0979004 C125.41396,55.2722168 125.880512,55.4584961 126.331684,55.6567383 C126.741841,55.8344727 127.136616,56.0361328 127.51601,56.2617188 C127.895405,56.4873047 128.225239,56.7504883 128.505512,57.0512695 Z" id="Path"></path>
                <path d="M146.464392,53.1240234 L145.756873,53.1240234 C145.695349,52.8779297 145.584265,52.5856934 145.423621,52.2473145 C145.262976,51.9089355 145.083533,51.5893555 144.885291,51.2885742 C144.680213,50.9741211 144.456336,50.6989746 144.21366,50.4631348 C143.970984,50.2272949 143.736853,50.0922852 143.511267,50.0581055 C143.299353,50.0307617 143.032752,50.0102539 142.711463,49.996582 C142.390174,49.9829102 142.09281,49.9760742 141.819373,49.9760742 L141.224646,49.9760742 L141.224646,61.6142578 C141.224646,61.8398438 141.272498,62.0466309 141.368201,62.2346191 C141.463904,62.4226074 141.631385,62.5678711 141.870642,62.6704102 C141.993689,62.7182617 142.251746,62.7832031 142.644812,62.8652344 C143.037879,62.9472656 143.343787,62.9916992 143.562537,62.9985352 L143.562537,63.7265625 L136.69242,63.7265625 L136.69242,62.9985352 C136.883826,62.9848633 137.176062,62.9575195 137.569129,62.9165039 C137.962195,62.8754883 138.233924,62.8242188 138.384314,62.7626953 C138.6099,62.6738281 138.775672,62.5456543 138.881629,62.3781738 C138.987586,62.2106934 139.040564,61.9868164 139.040564,61.706543 L139.040564,49.9760742 L138.445838,49.9760742 C138.233924,49.9760742 137.97074,49.9812012 137.656287,49.9914551 C137.341834,50.001709 137.041053,50.0239258 136.753943,50.0581055 C136.528357,50.0854492 136.294226,50.220459 136.051551,50.4631348 C135.808875,50.7058105 135.584998,50.980957 135.37992,51.2885742 C135.174842,51.5961914 134.993689,51.9226074 134.836463,52.2678223 C134.679236,52.6130371 134.569861,52.8984375 134.508338,53.1240234 L133.790564,53.1240234 L133.790564,49.1762695 L146.464392,49.1762695 L146.464392,53.1240234 Z" id="Path"></path>
                <path d="M165.75628,49.9042969 C165.564874,49.9111328 165.2846,49.9521484 164.91546,50.0273438 C164.546319,50.1025391 164.245538,50.215332 164.013116,50.3657227 C163.780694,50.5229492 163.62005,50.8476562 163.531182,51.3398438 C163.442315,51.8320312 163.397882,52.4335938 163.397882,53.1445312 L163.397882,59.4711914 C163.397882,60.277832 163.230401,60.9785156 162.89544,61.5732422 C162.560479,62.1679688 162.119561,62.6567383 161.572686,63.0395508 C161.032647,63.4086914 160.463556,63.673584 159.865411,63.8342285 C159.267266,63.994873 158.694757,64.0751953 158.147882,64.0751953 C157.272882,64.0751953 156.493585,63.9606934 155.809991,63.7316895 C155.126397,63.5026855 154.552179,63.1933594 154.087335,62.8037109 C153.629327,62.4140625 153.284112,61.9680176 153.05169,61.4655762 C152.819268,60.9631348 152.703057,60.4384766 152.703057,59.8916016 L152.703057,51.2885742 C152.703057,51.0493164 152.663751,50.8493652 152.585138,50.6887207 C152.506524,50.5280762 152.347589,50.3793945 152.108331,50.2426758 C151.937432,50.1469727 151.718682,50.0700684 151.452081,50.0119629 C151.185479,49.9538574 150.966729,49.9179688 150.795831,49.9042969 L150.795831,49.1762695 L156.85589,49.1762695 L156.85589,49.9042969 C156.664483,49.9111328 156.423516,49.9418945 156.132989,49.996582 C155.842462,50.0512695 155.628839,50.1025391 155.49212,50.1503906 C155.259698,50.2324219 155.104181,50.3691406 155.025567,50.5605469 C154.946954,50.7519531 154.907647,50.9604492 154.907647,51.1860352 L154.907647,59.2250977 C154.907647,59.6147461 154.950372,60.0231934 155.035821,60.4504395 C155.12127,60.8776855 155.29046,61.2758789 155.54339,61.6450195 C155.809991,62.0209961 156.172296,62.3286133 156.630304,62.5678711 C157.088311,62.8071289 157.717218,62.9267578 158.517022,62.9267578 C159.268975,62.9267578 159.899591,62.8071289 160.408868,62.5678711 C160.918145,62.3286133 161.319757,62.0141602 161.613702,61.6245117 C161.893975,61.2553711 162.092218,60.8691406 162.208429,60.4658203 C162.32464,60.0625 162.382745,59.6557617 162.382745,59.2456055 L162.382745,53.277832 C162.382745,52.519043 162.328057,51.8986816 162.218682,51.416748 C162.109307,50.9348145 161.948663,50.6186523 161.736749,50.4682617 C161.497491,50.2973633 161.171075,50.1640625 160.757501,50.0683594 C160.343927,49.9726562 160.027765,49.9179688 159.809015,49.9042969 L159.809015,49.1762695 L165.75628,49.1762695 L165.75628,49.9042969 Z" id="Path"></path>
                <path d="M184.268871,56.5385742 C184.268871,57.7758789 184.036449,58.8491211 183.571605,59.7583008 C183.106762,60.6674805 182.501781,61.4125977 181.756664,61.9936523 C181.004711,62.574707 180.160473,63.0087891 179.223949,63.2958984 C178.287426,63.5830078 177.320141,63.7265625 176.322094,63.7265625 L170.292797,63.7265625 L170.292797,62.9985352 C170.491039,62.9985352 170.749096,62.9797363 171.066967,62.9421387 C171.384838,62.904541 171.595043,62.8618164 171.697582,62.8139648 C171.90266,62.7250977 172.051342,62.5935059 172.143627,62.4191895 C172.235912,62.244873 172.282055,62.034668 172.282055,61.7885742 L172.282055,51.2885742 C172.282055,51.0561523 172.242748,50.8476562 172.164135,50.6630859 C172.085521,50.4785156 171.930004,50.331543 171.697582,50.222168 C171.485668,50.1196289 171.256664,50.0444336 171.01057,49.996582 C170.764477,49.9487305 170.552562,49.9179688 170.374828,49.9042969 L170.374828,49.1762695 L176.73225,49.1762695 C177.60725,49.1762695 178.468578,49.3112793 179.316234,49.5812988 C180.163891,49.8513184 180.902172,50.215332 181.531078,50.6733398 C182.38557,51.2817383 183.055492,52.078125 183.540844,53.0625 C184.026195,54.046875 184.268871,55.2055664 184.268871,56.5385742 Z M181.756664,56.5283203 C181.756664,55.5507812 181.626781,54.6672363 181.367016,53.8776855 C181.10725,53.0881348 180.727855,52.3994141 180.228832,51.8115234 C179.757152,51.2509766 179.177807,50.8100586 178.490795,50.4887695 C177.803783,50.1674805 177.039867,50.0068359 176.199047,50.0068359 C175.918773,50.0068359 175.602611,50.0119629 175.250561,50.0222168 C174.89851,50.0324707 174.637035,50.0410156 174.466137,50.0478516 L174.466137,61.2348633 C174.466137,61.8569336 174.647289,62.2875977 175.009594,62.5268555 C175.371898,62.7661133 175.929027,62.8857422 176.68098,62.8857422 C177.549145,62.8857422 178.307934,62.7319336 178.957348,62.4243164 C179.606762,62.1166992 180.133129,61.6894531 180.536449,61.1425781 C180.960277,60.5683594 181.269603,59.9035645 181.464428,59.1481934 C181.659252,58.3928223 181.756664,57.5195312 181.756664,56.5283203 Z" id="Shape"></path>
                <path d="M195.829314,63.7265625 L189.277067,63.7265625 L189.277067,62.9985352 C189.461638,62.9848633 189.728239,62.9643555 190.076872,62.9370117 C190.425505,62.909668 190.671599,62.8686523 190.815153,62.8139648 C191.040739,62.7250977 191.204802,62.6037598 191.307341,62.4499512 C191.40988,62.2961426 191.461149,62.0825195 191.461149,61.809082 L191.461149,51.2680664 C191.461149,51.0288086 191.423552,50.8288574 191.348357,50.6682129 C191.273161,50.5075684 191.095427,50.3725586 190.815153,50.2631836 C190.610075,50.1811523 190.352019,50.104248 190.040983,50.0324707 C189.729948,49.9606934 189.47531,49.9179688 189.277067,49.9042969 L189.277067,49.1762695 L195.829314,49.1762695 L195.829314,49.9042969 C195.617399,49.9111328 195.36447,49.9367676 195.070524,49.9812012 C194.776579,50.0256348 194.520232,50.0820312 194.301482,50.1503906 C194.041716,50.2324219 193.867399,50.3657227 193.778532,50.550293 C193.689665,50.7348633 193.645232,50.9399414 193.645232,51.1655273 L193.645232,61.6962891 C193.645232,61.921875 193.694792,62.1218262 193.793913,62.2961426 C193.893034,62.470459 194.062224,62.6088867 194.301482,62.7114258 C194.445036,62.7661133 194.679167,62.8259277 195.003874,62.8908691 C195.328581,62.9558105 195.603728,62.9916992 195.829314,62.9985352 L195.829314,63.7265625 Z" id="Path"></path>
                <path d="M212.814072,50.8989258 C213.456651,51.5688477 213.959092,52.3771973 214.321397,53.3239746 C214.683701,54.270752 214.864854,55.3183594 214.864854,56.4667969 C214.864854,57.6220703 214.680283,58.6713867 214.311143,59.6147461 C213.942002,60.5581055 213.429307,61.3613281 212.773057,62.0244141 C212.137315,62.6806641 211.399033,63.1865234 210.558213,63.5419922 C209.717393,63.8974609 208.821885,64.0751953 207.87169,64.0751953 C206.859971,64.0751953 205.925156,63.885498 205.067246,63.5061035 C204.209336,63.126709 203.472764,62.5986328 202.857529,61.921875 C202.242295,61.2587891 201.758652,60.4538574 201.406602,59.5070801 C201.054551,58.5603027 200.878526,57.546875 200.878526,56.4667969 C200.878526,55.2841797 201.063096,54.2297363 201.432236,53.3034668 C201.801377,52.3771973 202.310654,51.5756836 202.960069,50.8989258 C203.602647,50.2290039 204.349473,49.7163086 205.200547,49.3608398 C206.051621,49.0053711 206.942002,48.8276367 207.87169,48.8276367 C208.835557,48.8276367 209.744736,49.0087891 210.599229,49.3710938 C211.453721,49.7333984 212.192002,50.2426758 212.814072,50.8989258 Z M211.28624,61.2143555 C211.669053,60.5922852 211.947617,59.8881836 212.121934,59.1020508 C212.29625,58.315918 212.383408,57.4375 212.383408,56.4667969 C212.383408,55.46875 212.285996,54.5527344 212.091172,53.71875 C211.896348,52.8847656 211.610947,52.1738281 211.234971,51.5859375 C210.858994,51.0048828 210.387315,50.552002 209.819932,50.2272949 C209.252549,49.9025879 208.603135,49.7402344 207.87169,49.7402344 C207.051377,49.7402344 206.354111,49.9282227 205.779893,50.3041992 C205.205674,50.6801758 204.737412,51.1826172 204.375108,51.8115234 C204.033311,52.4130859 203.778672,53.1171875 203.611192,53.9238281 C203.443711,54.7304688 203.359971,55.578125 203.359971,56.4667969 C203.359971,57.4511719 203.448838,58.3398438 203.626572,59.1328125 C203.804307,59.9257812 204.08458,60.6298828 204.467393,61.2451172 C204.836533,61.8466797 205.301377,62.3166504 205.861924,62.6550293 C206.422471,62.9934082 207.092393,63.1625977 207.87169,63.1625977 C208.603135,63.1625977 209.262803,62.9916992 209.850694,62.6499023 C210.438584,62.3081055 210.9171,61.8295898 211.28624,61.2143555 Z" id="Shape"></path>
            </g>
            <g id="camera" fill="#091B22" fill-rule="nonzero">
                <g id="Group" transform="translate(57.000000, 49.640288) scale(-1, 1) rotate(-180.000000) translate(-57.000000, -49.640288) translate(0.000000, 0.000000)">
                    <path d="M73.9113185,99.1890258 C70.9111691,98.622939 69.0777445,97.3964175 68.3634232,95.4858745 C67.6729127,93.6460923 65.6251917,82.9376165 65.9109202,82.6545731 C66.0299737,82.5130514 68.4348554,87.3955503 70.101605,91.1458755 C70.7444942,92.5610925 71.411194,93.6932662 71.8159761,94.0234835 L72.5302974,94.6131573 L80.8878563,94.6367442 C85.507134,94.6603312 89.435901,94.6603312 89.6263867,94.6367442 C90.4359508,94.5423964 91.1502721,93.6932662 91.8169719,92.0185927 C92.1979433,91.0515277 93.364668,88.504137 94.4123392,86.3813114 C95.4361998,84.2584858 96.2695746,82.4894645 96.2457639,82.4658775 C96.1028996,82.3479428 67.1014556,81.8054429 64.0298741,81.8526168 C62.1964495,81.8997907 60.7439962,81.8762037 60.8154284,81.8054429 C60.9344819,81.6875081 65.8632987,81.5223995 93.5551537,80.6968562 C98.9601847,80.5317475 101.81747,80.3430519 102.698466,80.1307694 C107.032015,78.9750088 110.270272,75.6492487 111.056025,71.5215322 C111.294132,70.200663 111.389375,59.9403393 111.151268,59.9403393 C111.079836,59.9403393 110.19884,60.1526218 109.19879,60.3884914 C102.650845,62.015991 95.7695497,61.8980562 87.6024764,60.0111001 C87.221505,59.9403393 86.8881551,60.2469696 85.9595374,61.5678389 C80.4830743,69.5166414 70.9826013,74.9180532 61.6488032,75.3897922 L59.2677323,75.507727 L61.172589,75.1539227 C68.3634232,73.7858795 74.0541828,70.8846846 78.9353782,66.0729465 C83.2451166,61.8272954 85.9357267,57.1570791 87.38818,51.4490369 C88.2453655,48.052516 88.4358512,42.4859955 87.8405835,38.9243659 C87.3643693,36.0939318 86.1976445,32.3671935 85.1023519,30.197194 C78.7925139,17.6725231 64.3632241,10.973829 50.6482555,14.1816543 C45.2432245,15.4553497 40.695379,17.9319795 36.5285048,21.8945873 C31.766363,26.3996949 28.7900243,31.8482806 27.5756781,38.1931704 C26.9804104,41.2594741 27.0518425,46.6608859 27.6947317,49.7271895 C28.98051,55.8833837 31.7187415,61.1196868 35.9808585,65.6012075 C40.8382432,70.7195759 47.0290277,73.9274012 54.3865368,75.1539227 L56.17234,75.4605531 L54.862751,75.48414 C53.14838,75.507727 49.7672592,74.9652271 47.3623776,74.2576186 C40.1477327,72.134793 33.9331375,67.8183809 29.8615062,62.1103388 C29.0281314,60.9074043 28.2661887,59.9403393 28.1947566,59.9403393 C28.1233244,59.9403393 27.0280318,60.1997957 25.7660642,60.5300131 C19.9086297,61.992404 12.098717,61.8980562 5.83650048,60.2941435 C5.00312566,60.081861 4.26499367,59.9639262 4.19356154,60.0346871 C4.14594012,60.1054479 4.07450799,62.8651212 4.05069728,66.1437074 L4.02688657,72.111206 L5.02693636,74.1160968 C6.28890396,76.6399006 7.52706085,78.0551177 9.31286405,78.9750088 C12.3844456,80.6025084 12.098717,80.5789214 39.5048435,81.1685952 C58.0533861,81.5931603 58.6962752,81.7110951 44.0288783,82.0648993 C37.0999619,82.230008 31.4092023,82.3951167 31.3615809,82.4187036 C31.3377702,82.4658775 31.6234987,83.3857686 32.0044701,84.4707683 C32.3854414,85.579355 32.7187913,86.9473982 32.7187913,87.537072 C32.7187913,89.7778323 30.7186917,92.4195708 28.3614315,93.315875 C26.7423033,93.9291357 24.0993146,93.7168531 22.6468613,92.8913099 C19.6467119,91.1458755 18.4799871,87.9144632 19.718144,84.8953335 C19.9086297,84.4707683 20.1229261,83.7631598 20.2181689,83.3150077 L20.3848439,82.5130514 L16.7418054,82.6781601 C13.5035489,82.8196818 12.8606597,82.7725079 11.2177208,82.3715297 C5.3602863,80.8619648 1.59819422,76.5219658 0.83625152,70.3185977 C0.574333717,68.3608808 0.0743088209,37.0845837 0.00287669282,20.9039353 C-0.0209340165,12.0116548 0.0743088209,11.1861115 1.40770854,8.4028513 C3.21732245,4.69969999 6.76511815,1.70415721 10.7176959,0.595570513 C11.9796635,0.218179297 14.3607344,0.171005395 33.5521662,0.0530706398 C45.3384673,-0.0176902133 65.5775702,-0.0176902133 78.5544068,0.0530706398 C104.50808,0.194592346 103.17468,0.123831493 106.293883,1.68057026 C110.341704,3.70904805 113.294232,7.71882972 113.91331,12.0588287 C114.151417,13.7335022 113.865689,45.4107775 113.460907,62.7707734 C113.270421,70.4837064 113.198989,71.5451192 112.746585,72.9131623 C111.579861,76.5455528 108.889251,79.6118564 105.460508,81.1921822 C103.008005,82.3243558 101.936523,82.5602253 99.2221025,82.5838123 L97.0315173,82.5838123 L96.888653,83.9518554 C96.6505459,85.9095724 95.6504961,91.6176145 95.1980927,93.5989184 C94.5790142,96.3821786 93.0789395,98.1983738 90.9359757,98.8588085 C89.9835473,99.1654388 75.2447182,99.4248953 73.9113185,99.1890258 Z M27.5994888,88.8107673 C28.8376457,88.2446805 29.1471849,87.7257676 30.0996133,84.9189204 L30.9806096,82.3007688 L26.194657,82.4658775 C23.5516682,82.5602253 21.361083,82.6781601 21.3372723,82.701747 C21.0515438,82.9376165 22.3373221,86.8058765 22.9087791,87.513485 C24.1945574,89.0702238 25.9803606,89.5891367 27.5994888,88.8107673 Z M111.175079,46.3306685 C110.698864,11.9644809 110.722675,12.5305677 110.151218,11.1153507 C109.103547,8.52078606 106.793908,6.23285181 104.150919,5.14785206 L102.84133,4.62893914 L57.243822,4.62893914 L11.6463136,4.62893914 L10.2891031,5.26578682 C8.59854277,6.0441562 6.81273957,7.67165582 6.00317545,9.15763373 C4.69358643,11.5635027 4.66977572,11.7050244 4.52691147,27.7441511 C4.45547934,35.9288231 4.31261508,46.1419729 4.21737225,50.4819719 L4.07450799,58.3600136 L4.76501856,58.2184919 C5.14598991,58.1241441 6.1460397,57.8882745 7.00322524,57.6995789 C7.86041078,57.5108833 10.0271853,57.2278399 11.8129885,57.0627313 C15.6465127,56.7325139 20.9563009,57.0627313 24.4802859,57.8175137 C25.6708214,58.0769702 26.6946819,58.2892527 26.7899247,58.2892527 C26.8851675,58.2892527 26.4803855,57.2514269 25.9089285,56.0013185 C22.0039721,47.3213205 21.9801614,37.8393662 25.861307,29.1121943 C30.4091525,18.7575228 40.0048684,11.2804593 51.5292517,9.08687288 C54.862751,8.4500252 60.7916177,8.49719911 64.1489277,9.20480764 C71.2921405,10.6907856 76.6733608,13.5919805 81.7926633,18.639588 C86.8405337,23.6400217 89.7692509,29.0178465 91.3407577,36.0703448 C92.0312683,39.1602354 92.1027004,45.646647 91.4598113,48.5950158 C90.8645436,51.3311022 89.9597366,54.0436015 88.8882547,56.3315358 C88.3882298,57.4165355 88.0548799,58.2892527 88.1501227,58.2892527 C88.2453655,58.2892527 88.9120654,58.1241441 89.6263867,57.9354484 C94.8647427,56.5438183 103.603273,56.5909922 109.032115,58.0297962 C109.960732,58.2892527 110.841729,58.5017246 111.008404,58.5017246 C111.270321,58.5251222 111.294132,56.3551227 111.175079,46.3306685 Z" id="Shape"></path>
                    <path d="M79.5068352,91.4996797 C78.3877319,91.0987016 76.7686036,89.8485932 76.7686036,89.4004411 C76.7686036,88.8579412 79.1496746,87.3719633 80.3640207,87.1832677 C81.7450419,86.9473982 83.0784416,87.2540286 84.3165985,88.0795718 C85.8881053,89.1409846 86.0547803,89.4947889 85.3642697,90.2259844 C84.1737342,91.4760928 81.245017,92.1129405 79.5068352,91.4996797 Z" id="Path"></path>
                    <path d="M93.0313181,70.6016411 C91.650297,70.1063152 89.8644938,69.0213154 89.8644938,68.6675112 C89.8644938,68.3372938 91.4598113,67.3466419 92.7217789,66.8749029 C95.1266605,66.0021857 98.8649419,66.5682725 100.698367,68.1014243 L101.412688,68.6910981 L100.81742,69.1864241 C98.8887526,70.8139237 95.3885783,71.4271844 93.0313181,70.6016411 Z" id="Path"></path>
                    <path d="M53.6722156,63.0774038 C45.0765495,61.6385998 38.1476331,54.6568623 36.7666119,46.0240382 C36.266587,42.8633867 36.6713691,39.3017571 37.8619046,36.1411057 C40.0524898,30.3387158 45.362278,25.5977386 51.6959267,23.8051303 C54.124619,23.0975218 58.9105716,23.0503479 61.2916425,23.7107825 C69.6253908,25.9751298 74.9828004,32.2964327 75.6971217,40.7169742 C75.7923645,41.7548 75.8161753,42.5567564 75.7447431,42.4859955 C75.673311,42.4152347 75.4352039,41.6132783 75.2447182,40.7169742 C74.6494505,38.1459965 72.7922152,34.6315408 71.0540334,32.7445848 C67.4348056,28.8291509 63.0298243,26.82426 58.0771968,26.847847 C55.029426,26.847847 52.9578943,27.343173 50.1006092,28.7348031 C48.2671845,29.6311072 47.4814311,30.197194 45.933735,31.7539328 C42.7669107,34.8674103 41.2192146,38.6413225 41.2192146,43.1936041 C41.2192146,47.8166465 42.7669107,51.4962108 46.0527886,54.774797 C47.7909704,56.4966444 48.4576702,56.9919704 50.3387163,57.8882745 C51.5768731,58.4779483 53.2436228,59.091209 54.0293762,59.2327308 C56.0770972,59.6572959 59.9344321,59.610122 61.8154782,59.1619699 C68.3872339,57.5816442 73.6017793,52.3217541 75.2209075,45.62306 C75.4590146,44.679582 75.6971217,43.9012126 75.7447431,43.9012126 C75.9590395,43.9012126 75.5780682,47.2505596 75.1970968,48.9724071 C74.6732612,51.2367544 72.9827008,54.5861014 71.4588154,56.3315358 C67.6729127,60.7187087 61.9821531,63.2896863 56.2913936,63.2189255 C55.1722902,63.1953385 54.0055655,63.1245777 53.6722156,63.0774038 Z" id="Path"></path>
                    <path d="M52.5054908,52.1802324 C51.8149802,51.9443629 50.9577947,51.5433847 50.6006341,51.2839283 C48.6957773,49.8687112 47.6004847,47.1797988 48.1719417,45.2692557 C48.8148309,43.1464302 48.6957773,43.0992563 53.3626763,47.6751248 L57.6009826,51.8028412 L56.9580934,52.0858846 C55.767558,52.6283845 53.8865119,52.6755584 52.5054908,52.1802324 Z" id="Path"></path>
                </g>
            </g>
        </g>
    </g>
</svg>