<?xml version="1.0" encoding="UTF-8"?>
<svg width="198px" height="13px" viewBox="0 0 198 13" version="1.1" xmlns="http://www.w3.org/2000/svg" xmlns:xlink="http://www.w3.org/1999/xlink">
    <title>UMIYA DIGITAL STUDIO</title>
    <defs>
        <path d="M8.71875,0.15625 L8.71875,7.6484375 C8.71875,8.89322917 8.32942708,9.87760417 7.55078125,10.6015625 C6.77213542,11.3255208 5.70833333,11.6875 4.359375,11.6875 C3.03125,11.6875 1.9765625,11.3359375 1.1953125,10.6328125 C0.4140625,9.9296875 0.015625,8.96354167 -1.42108547e-14,7.734375 L-1.42108547e-14,0.15625 L2.34375,0.15625 L2.34375,7.6640625 C2.34375,8.40885417 2.52213542,8.95182292 2.87890625,9.29296875 C3.23567708,9.63411458 3.72916667,9.8046875 4.359375,9.8046875 C5.67708333,9.8046875 6.34635417,9.11197917 6.3671875,7.7265625 L6.3671875,0.15625 L8.71875,0.15625 Z" id="path-1"></path>
        <polygon id="path-2" points="15.081096 0.15625 18.002971 8.40625 20.909221 0.15625 23.987346 0.15625 23.987346 11.53125 21.6357835 11.53125 21.6357835 8.421875 21.8701585 3.0546875 18.799846 11.53125 17.190471 11.53125 14.127971 3.0625 14.362346 8.421875 14.362346 11.53125 12.018596 11.53125 12.018596 0.15625"></polygon>
        <polygon id="path-3" points="29.9043795 11.53125 27.5606295 11.53125 27.5606295 0.15625 29.9043795 0.15625"></polygon>
        <polygon id="path-4" points="37.1573505 5.28125 39.524538 0.15625 42.087038 0.15625 38.352663 7.40625 38.352663 11.53125 35.9698505 11.53125 35.9698505 7.40625 32.2354755 0.15625 34.805788 0.15625"></polygon>
        <path d="M49.7540715,9.1875 L45.6446965,9.1875 L44.8634465,11.53125 L42.371259,11.53125 L46.605634,0.15625 L48.777509,0.15625 L53.0353215,11.53125 L50.543134,11.53125 L49.7540715,9.1875 Z M46.277509,7.2890625 L49.121259,7.2890625 L47.6915715,3.03125 L46.277509,7.2890625 Z" id="path-5"></path>
        <path d="M60.8381385,11.53125 L60.8381385,0.15625 L64.3381385,0.15625 C65.3381385,0.15625 66.2326697,0.381510417 67.0217322,0.83203125 C67.8107947,1.28255208 68.4266802,1.92317708 68.8693885,2.75390625 C69.3120968,3.58463542 69.533451,4.52864583 69.533451,5.5859375 L69.533451,6.109375 C69.533451,7.16666667 69.3160031,8.10677083 68.8811072,8.9296875 C68.4462114,9.75260417 67.8329302,10.390625 67.0412635,10.84375 C66.2495968,11.296875 65.3563677,11.5260417 64.361576,11.53125 L60.8381385,11.53125 Z M63.1818885,2.0546875 L63.1818885,9.6484375 L64.314701,9.6484375 C65.2313677,9.6484375 65.9318885,9.34895833 66.4162635,8.75 C66.9006385,8.15104167 67.1480343,7.29427083 67.158451,6.1796875 L67.158451,5.578125 C67.158451,4.421875 66.9188677,3.54557292 66.439701,2.94921875 C65.9605343,2.35286458 65.2600135,2.0546875 64.3381385,2.0546875 L63.1818885,2.0546875 Z" id="path-6"></path>
        <polygon id="path-7" points="75.1067345 11.53125 72.7629845 11.53125 72.7629845 0.15625 75.1067345 0.15625"></polygon>
        <path d="M87.6565805,10.09375 C87.2347055,10.5989583 86.6383513,10.9908854 85.867518,11.2695312 C85.0966847,11.5481771 84.242518,11.6875 83.305018,11.6875 C82.320643,11.6875 81.4573617,11.4726562 80.7151742,11.0429688 C79.9729867,10.6132812 79.4000701,9.98958333 78.9964242,9.171875 C78.5927784,8.35416667 78.3857472,7.39322917 78.3753305,6.2890625 L78.3753305,5.515625 C78.3753305,4.38020833 78.5667367,3.39713542 78.9495492,2.56640625 C79.3323617,1.73567708 79.8844451,1.10026042 80.6057992,0.66015625 C81.3271534,0.220052083 82.1722055,0 83.1409555,0 C84.4899138,0 85.5446013,0.321614583 86.305018,0.96484375 C87.0654347,1.60807292 87.5159555,2.54427083 87.6565805,3.7734375 L85.3753305,3.7734375 C85.2711638,3.12239583 85.0406951,2.64583333 84.6839242,2.34375 C84.3271534,2.04166667 83.836268,1.890625 83.211268,1.890625 C82.414393,1.890625 81.8076222,2.19010417 81.3909555,2.7890625 C80.9742888,3.38802083 80.7633513,4.27864583 80.758143,5.4609375 L80.758143,6.1875 C80.758143,7.38020833 80.9847055,8.28125 81.4378305,8.890625 C81.8909555,9.5 82.555018,9.8046875 83.430018,9.8046875 C84.3102263,9.8046875 84.9378305,9.6171875 85.3128305,9.2421875 L85.3128305,7.28125 L83.180018,7.28125 L83.180018,5.5546875 L87.6565805,5.5546875 L87.6565805,10.09375 Z" id="path-8"></path>
        <polygon id="path-9" points="93.4251765 11.53125 91.0814265 11.53125 91.0814265 0.15625 93.4251765 0.15625"></polygon>
        <polygon id="path-10" points="105.31096 2.0546875 101.826585 2.0546875 101.826585 11.53125 99.482835 11.53125 99.482835 2.0546875 96.045335 2.0546875 96.045335 0.15625 105.31096 0.15625"></polygon>
        <path d="M113.509244,9.1875 L109.399869,9.1875 L108.618619,11.53125 L106.126431,11.53125 L110.360806,0.15625 L112.532681,0.15625 L116.790494,11.53125 L114.298306,11.53125 L113.509244,9.1875 Z M110.032681,7.2890625 L112.876431,7.2890625 L111.446744,3.03125 L110.032681,7.2890625 Z" id="path-11"></path>
        <polygon id="path-12" points="121.574715 9.6484375 126.551277 9.6484375 126.551277 11.53125 119.230965 11.53125 119.230965 0.15625 121.574715 0.15625"></polygon>
        <path d="M140.533781,8.546875 C140.533781,8.10416667 140.377531,7.76432292 140.065031,7.52734375 C139.752531,7.29036458 139.190031,7.04036458 138.377531,6.77734375 C137.565031,6.51432292 136.921802,6.25520833 136.447844,6 C135.156177,5.30208333 134.510344,4.36197917 134.510344,3.1796875 C134.510344,2.56510417 134.683521,2.01692708 135.029875,1.53515625 C135.376229,1.05338542 135.873625,0.677083333 136.522063,0.40625 C137.1705,0.135416667 137.898365,0 138.705656,0 C139.518156,0 140.242115,0.147135417 140.877531,0.44140625 C141.512948,0.735677083 142.006438,1.15104167 142.358,1.6875 C142.709563,2.22395833 142.885344,2.83333333 142.885344,3.515625 L140.541594,3.515625 C140.541594,2.99479167 140.377531,2.58984375 140.049406,2.30078125 C139.721281,2.01171875 139.260344,1.8671875 138.666594,1.8671875 C138.093677,1.8671875 137.648365,1.98828125 137.330656,2.23046875 C137.012948,2.47265625 136.854094,2.79166667 136.854094,3.1875 C136.854094,3.55729167 137.040292,3.8671875 137.412688,4.1171875 C137.785084,4.3671875 138.333261,4.6015625 139.057219,4.8203125 C140.390552,5.22135417 141.361906,5.71875 141.971281,6.3125 C142.580656,6.90625 142.885344,7.64583333 142.885344,8.53125 C142.885344,9.515625 142.512948,10.2877604 141.768156,10.8476562 C141.023365,11.4075521 140.020761,11.6875 138.760344,11.6875 C137.885344,11.6875 137.088469,11.5273438 136.369719,11.2070312 C135.650969,10.8867188 135.102792,10.4479167 134.725188,9.890625 C134.347584,9.33333333 134.158781,8.6875 134.158781,7.953125 L136.510344,7.953125 C136.510344,9.20833333 137.260344,9.8359375 138.760344,9.8359375 C139.317636,9.8359375 139.752531,9.72265625 140.065031,9.49609375 C140.377531,9.26953125 140.533781,8.953125 140.533781,8.546875 Z" id="path-13"></path>
        <polygon id="path-14" points="154.411752 2.0546875 150.927377 2.0546875 150.927377 11.53125 148.583627 11.53125 148.583627 2.0546875 145.146127 2.0546875 145.146127 0.15625 154.411752 0.15625"></polygon>
        <path d="M165.735036,0.15625 L165.735036,7.6484375 C165.735036,8.89322917 165.345713,9.87760417 164.567067,10.6015625 C163.788421,11.3255208 162.724619,11.6875 161.375661,11.6875 C160.047536,11.6875 158.992848,11.3359375 158.211598,10.6328125 C157.430348,9.9296875 157.031911,8.96354167 157.016286,7.734375 L157.016286,0.15625 L159.360036,0.15625 L159.360036,7.6640625 C159.360036,8.40885417 159.538421,8.95182292 159.895192,9.29296875 C160.251963,9.63411458 160.745453,9.8046875 161.375661,9.8046875 C162.693369,9.8046875 163.36264,9.11197917 163.383473,7.7265625 L163.383473,0.15625 L165.735036,0.15625 Z" id="path-15"></path>
        <path d="M169.034882,11.53125 L169.034882,0.15625 L172.534882,0.15625 C173.534882,0.15625 174.429413,0.381510417 175.218476,0.83203125 C176.007538,1.28255208 176.623424,1.92317708 177.066132,2.75390625 C177.50884,3.58463542 177.730194,4.52864583 177.730194,5.5859375 L177.730194,6.109375 C177.730194,7.16666667 177.512747,8.10677083 177.077851,8.9296875 C176.642955,9.75260417 176.029674,10.390625 175.238007,10.84375 C174.44634,11.296875 173.553111,11.5260417 172.558319,11.53125 L169.034882,11.53125 Z M171.378632,2.0546875 L171.378632,9.6484375 L172.511444,9.6484375 C173.428111,9.6484375 174.128632,9.34895833 174.613007,8.75 C175.097382,8.15104167 175.344778,7.29427083 175.355194,6.1796875 L175.355194,5.578125 C175.355194,4.421875 175.115611,3.54557292 174.636444,2.94921875 C174.157278,2.35286458 173.456757,2.0546875 172.534882,2.0546875 L171.378632,2.0546875 Z" id="path-16"></path>
        <polygon id="path-17" points="183.303478 11.53125 180.959728 11.53125 180.959728 0.15625 183.303478 0.15625"></polygon>
        <path d="M196.197074,6.1015625 C196.197074,7.22135417 195.999157,8.203125 195.603324,9.046875 C195.207491,9.890625 194.641084,10.5416667 193.904105,11 C193.167126,11.4583333 192.322074,11.6875 191.368949,11.6875 C190.426241,11.6875 189.585095,11.4609375 188.845511,11.0078125 C188.105928,10.5546875 187.533011,9.90755208 187.126761,9.06640625 C186.720511,8.22526042 186.514782,7.2578125 186.509574,6.1640625 L186.509574,5.6015625 C186.509574,4.48177083 186.711397,3.49609375 187.115043,2.64453125 C187.518689,1.79296875 188.089001,1.13932292 188.82598,0.68359375 C189.562959,0.227864583 190.405407,0 191.353324,0 C192.301241,0 193.143689,0.227864583 193.880668,0.68359375 C194.617647,1.13932292 195.187959,1.79296875 195.591605,2.64453125 C195.995251,3.49609375 196.197074,4.47916667 196.197074,5.59375 L196.197074,6.1015625 Z M193.822074,5.5859375 C193.822074,4.39322917 193.608532,3.48697917 193.181449,2.8671875 C192.754366,2.24739583 192.144991,1.9375 191.353324,1.9375 C190.566866,1.9375 189.960095,2.24348958 189.533011,2.85546875 C189.105928,3.46744792 188.889782,4.36458333 188.884574,5.546875 L188.884574,6.1015625 C188.884574,7.26302083 189.098116,8.1640625 189.525199,8.8046875 C189.952282,9.4453125 190.566866,9.765625 191.368949,9.765625 C192.155407,9.765625 192.759574,9.45703125 193.181449,8.83984375 C193.603324,8.22265625 193.816866,7.32291667 193.822074,6.140625 L193.822074,5.5859375 Z" id="path-18"></path>
    </defs>
    <g id="Page-1" stroke="none" stroke-width="1" fill="none" fill-rule="evenodd">
        <g id="UMIYA-DIGITAL-STUDIO" transform="translate(0.906250, 0.468750)" fill="#091B22" fill-rule="nonzero">
            <g id="Path">
                <use xlink:href="#path-1"></use>
                <use xlink:href="#path-1"></use>
            </g>
            <g id="Path">
                <use xlink:href="#path-2"></use>
                <use xlink:href="#path-2"></use>
            </g>
            <g id="Path">
                <use xlink:href="#path-3"></use>
                <use xlink:href="#path-3"></use>
            </g>
            <g id="Path">
                <use xlink:href="#path-4"></use>
                <use xlink:href="#path-4"></use>
            </g>
            <g id="Shape">
                <use xlink:href="#path-5"></use>
                <use xlink:href="#path-5"></use>
            </g>
            <g id="Shape">
                <use xlink:href="#path-6"></use>
                <use xlink:href="#path-6"></use>
            </g>
            <g id="Path">
                <use xlink:href="#path-7"></use>
                <use xlink:href="#path-7"></use>
            </g>
            <g id="Path">
                <use xlink:href="#path-8"></use>
                <use xlink:href="#path-8"></use>
            </g>
            <g id="Path">
                <use xlink:href="#path-9"></use>
                <use xlink:href="#path-9"></use>
            </g>
            <g id="Path">
                <use xlink:href="#path-10"></use>
                <use xlink:href="#path-10"></use>
            </g>
            <g id="Shape">
                <use xlink:href="#path-11"></use>
                <use xlink:href="#path-11"></use>
            </g>
            <g id="Path">
                <use xlink:href="#path-12"></use>
                <use xlink:href="#path-12"></use>
            </g>
            <g id="Path">
                <use xlink:href="#path-13"></use>
                <use xlink:href="#path-13"></use>
            </g>
            <g id="Path">
                <use xlink:href="#path-14"></use>
                <use xlink:href="#path-14"></use>
            </g>
            <g id="Path">
                <use xlink:href="#path-15"></use>
                <use xlink:href="#path-15"></use>
            </g>
            <g id="Shape">
                <use xlink:href="#path-16"></use>
                <use xlink:href="#path-16"></use>
            </g>
            <g id="Path">
                <use xlink:href="#path-17"></use>
                <use xlink:href="#path-17"></use>
            </g>
            <g id="Shape">
                <use xlink:href="#path-18"></use>
                <use xlink:href="#path-18"></use>
            </g>
        </g>
    </g>
</svg>